{"title":"Arrow S03E01 The Calm 720p HDTV X265","uid":11182627,"size":424988318,"categoryP":"video","categoryS":"hd___tv_shows","magnet":"?xt=urn:btih:db72412139a5b41c0475d7dd0e8280edffc3413a&amp;dn=Arrow+S03E01+The+Calm+720p+HDTV+X265&amp;tr=udp%3A%2F%2Ftracker.openbittorrent.com%3A80&amp;tr=udp%3A%2F%2Fopen.demonii.com%3A1337&amp;tr=udp%3A%2F%2Ftracker.coppersurfer.tk%3A6969&amp;tr=udp%3A%2F%2Fexodus.desync.com%3A6969","seeders":8,"leechers":0,"uploader":"atm50","files":-1,"time":1412881551,"description":"With crime in Starling City at an all-time low thanks to the Arrow and his team, Oliver thinks he can finally balance being both the Arrow and Oliver Queen and asks Felicity out on a date. However, when a new villain emerges, who has claimed the name Vertigo from the recently deceased Count, Oliver is caught off-guard and someone close to him is hurt. Oliver and a newly suited up Roy take on the Count. Laurel joins Arrow's inner circle and Felicity gets a part-time job at a tech store to make ends meet. Also, Oliver fights to regain his company, Queen Consolidated, but comes up against a very worthy\n\nSource: Arrow S03E01 720p HDTV X264-DIMENSION\n\nFormat                         : MPEG-4\nFile size                      : 405 MiB\nDuration                       : 42mn 5s\nOverall bit rate               : 1 346 Kbps\n\nVideo\n\nFormat                         : HEVC [X265]\nBit rate                       : 1 088 Kbps\nMaximum bit rate               : 10.4 Mbps\nWidth                          : 1 280 pixels\nHeight                         : 720 pixels\nDisplay aspect ratio           : 16:9\nFrame rate                     : 23.976 fps\nStream size                    : 327 MiB (81%)\n\nAudio\n\nFormat                         : AC-3\nBit rate                       : 256 Kbps\nChannel(s)                     : 6 channels (5.1)\nSampling rate                  : 48.0 KHz\nBit depth                      : 16 bits\nCompression mode               : Lossy\nStream size                    : 77.0 MiB (19%)\n\nSubtitles: English (External)","torrent":{"xt":"urn:btih:db72412139a5b41c0475d7dd0e8280edffc3413a","amp;dn":"Arrow+S03E01+The+Calm+720p+HDTV+X265","amp;tr":["udp%3A%2F%2Ftracker.openbittorrent.com%3A80","udp%3A%2F%2Fopen.demonii.com%3A1337","udp%3A%2F%2Ftracker.coppersurfer.tk%3A6969","udp%3A%2F%2Fexodus.desync.com%3A6969"],"infoHash":"db72412139a5b41c0475d7dd0e8280edffc3413a","infoHashBuffer":{"type":"Buffer","data":[219,114,65,33,57,165,180,28,4,117,215,221,14,130,128,237,255,195,65,58]},"announce":[],"urlList":[]}}